<?xml version="1.0" standalone="no"?>
<!DOCTYPE svg PUBLIC "-//W3C//DTD SVG 20010904//EN"
 "http://www.w3.org/TR/2001/REC-SVG-20010904/DTD/svg10.dtd">
<svg version="1.0" xmlns="http://www.w3.org/2000/svg"
 width="256.000000pt" height="256.000000pt" viewBox="0 0 256.000000 256.000000"
 preserveAspectRatio="xMidYMid meet">
<metadata>
Created by potrace 1.11, written by Peter Selinger 2001-2013
</metadata>
<g transform="translate(0.000000,256.000000) scale(0.100000,-0.100000)"
fill="#000000" stroke="none">
<path d="M793 2472 c-25 -2 -43 -8 -43 -15 -1 -7 -2 -140 -3 -297 l-2 -284
-30 -6 c-45 -10 -71 -27 -102 -67 -23 -30 -28 -48 -30 -97 -2 -94 37 -149 121
-172 41 -11 42 -12 45 -70 1 -18 7 -20 45 -18 32 2 46 -2 50 -13 9 -23 0 -30
-45 -31 -23 -1 -44 -3 -46 -5 -2 -3 -5 -173 -4 -244 l1 -31 178 -1 c260 0 254
0 247 -11 -4 -6 1 -22 10 -36 l17 -26 -188 3 -187 4 -15 -33 -16 -32 -140 0
c-192 0 -198 3 -266 140 l-51 105 22 50 c30 67 30 143 -1 214 l-24 54 -22 -52
c-33 -73 -62 -111 -97 -126 -38 -16 -54 -10 -72 26 -25 47 -17 133 20 222 8
19 -1 18 -62 -9 -97 -43 -129 -193 -66 -306 32 -57 108 -118 147 -118 17 0 32
-22 80 -117 40 -81 60 -132 61 -162 5 -88 97 -133 166 -82 25 19 42 21 169 21
l141 0 10 -29 c5 -15 22 -34 37 -42 15 -8 29 -17 32 -21 7 -9 4 -354 -4 -366
-3 -6 7 -26 24 -46 20 -23 27 -37 19 -41 -6 -4 -9 -20 -7 -36 3 -16 2 -29 -1
-29 -68 -5 -239 -51 -283 -77 -36 -21 -48 -51 -26 -64 7 -5 117 -9 245 -9 261
0 255 -2 243 74 -5 31 -2 52 11 76 13 23 15 39 9 56 -8 19 -5 29 10 44 11 11
22 30 25 43 6 24 8 24 135 24 l129 0 6 -28 c4 -16 15 -35 26 -43 15 -10 18
-19 11 -37 -10 -28 -5 -59 10 -59 6 0 8 -25 7 -63 -2 -34 0 -68 4 -74 10 -15
463 -19 485 -4 22 13 10 43 -26 64 -44 26 -215 72 -283 77 -3 0 -4 13 -1 29 2
16 -1 32 -8 36 -8 5 -3 16 16 36 l28 29 -1 199 c0 198 0 200 22 205 13 3 30
21 39 41 l17 35 140 0 c131 0 142 -2 172 -23 67 -50 154 -4 161 83 2 30 23 85
61 163 47 94 63 117 80 117 33 0 112 55 138 97 39 61 52 139 37 205 -15 60
-62 114 -115 132 -22 8 -41 13 -42 12 -2 -1 6 -28 17 -59 34 -95 23 -189 -22
-206 -47 -17 -101 33 -144 132 l-21 49 -23 -54 c-31 -72 -31 -161 0 -216 l23
-41 -52 -108 c-69 -141 -72 -143 -264 -143 l-142 0 -18 33 -18 32 -185 -4
-186 -3 17 25 c9 15 14 31 10 37 -7 11 28 12 288 10 l147 -1 1 28 c3 84 0 246
-6 251 -3 3 -23 5 -44 4 -26 -2 -40 2 -44 12 -8 20 16 38 45 32 36 -6 53 9 53
46 0 28 4 33 30 38 142 29 177 230 56 314 -20 14 -49 26 -63 26 l-25 0 1 291
c1 160 -2 295 -5 301 -6 9 -919 18 -1026 10z"/>
</g>
</svg>
